# xmcd
#
# Track frame offsets: 
#        150
#        22942
#        48850
#        73035
#        97730
#        126742
#        153270
#        176340
#        205645
#        237162
#
# Disc length: 3695 seconds
#
# Revision: 1
# Processed by: cddbd v1.5.2PL0 Copyright (c) Steve Scherf et al.
# Submitted via: ExactAudioCopyFreeDBPlugin 1.0
#
DISCID=760e6d0a
DTITLE=Petras Vysniauskas, Arkadij Gotesman - Lithunia
DYEAR=1990
DGENRE=Jazz
TTITLE0=Sonet 1 (Lithutania)
TTITLE1=Sonet 2
TTITLE2=Sonet 3
TTITLE3=Sonet 4
TTITLE4=Sonet 5
TTITLE5=Sonet 6
TTITLE6=Sonet 7
TTITLE7=Sonet 8
TTITLE8=Sonet 9
TTITLE9=Sonet 10
EXTD=YEAR: 1990
EXTT0=
EXTT1=
EXTT2=
EXTT3=
EXTT4=
EXTT5=
EXTT6=
EXTT7=
EXTT8=
EXTT9=
PLAYORDER=
